<svg xmlns="http://www.w3.org/2000/svg" xmlns:xlink="http://www.w3.org/1999/xlink" width="300" zoomAndPan="magnify" viewBox="0 0 224.87999 225" height="300" preserveAspectRatio="xMidYMid meet" version="1.0"><defs><g/><clipPath id="01460a1280"><path d="M 0 0.0585938 L 224.761719 0.0585938 L 224.761719 224.9375 L 0 224.9375 Z M 0 0.0585938 " clip-rule="nonzero"/></clipPath><clipPath id="252fb472c0"><path d="M 67.464844 171.734375 L 157.414062 171.734375 L 157.414062 197.21875 L 67.464844 197.21875 Z M 67.464844 171.734375 " clip-rule="nonzero"/></clipPath></defs><g clip-path="url(#01460a1280)"><path fill="#ffffff" d="M 0 0.0585938 L 224.878906 0.0585938 L 224.878906 457.316406 L 0 457.316406 Z M 0 0.0585938 " fill-opacity="1" fill-rule="nonzero"/><path fill="#ffffff" d="M 0 0.0585938 L 224.878906 0.0585938 L 224.878906 224.941406 L 0 224.941406 Z M 0 0.0585938 " fill-opacity="1" fill-rule="nonzero"/><path fill="#a6a6a6" d="M 0 0.0585938 L 224.878906 0.0585938 L 224.878906 224.941406 L 0 224.941406 Z M 0 0.0585938 " fill-opacity="1" fill-rule="nonzero"/></g><g fill="#000000" fill-opacity="1"><g transform="translate(17.813203, 62.573092)"><g><path d="M 18.84375 -13.9375 C 18.84375 -12.59375 18.535156 -11.375 17.921875 -10.28125 C 17.304688 -9.195312 16.390625 -8.335938 15.171875 -7.703125 C 13.960938 -7.066406 12.5 -6.75 10.78125 -6.75 L 8.15625 -6.75 L 8.15625 0 L 1.5 0 L 1.5 -21.21875 L 10.78125 -21.21875 C 13.382812 -21.21875 15.378906 -20.554688 16.765625 -19.234375 C 18.148438 -17.921875 18.84375 -16.15625 18.84375 -13.9375 Z M 10.046875 -11.984375 C 11.421875 -11.984375 12.109375 -12.632812 12.109375 -13.9375 C 12.109375 -15.238281 11.421875 -15.890625 10.046875 -15.890625 L 8.15625 -15.890625 L 8.15625 -11.984375 Z M 10.046875 -11.984375 "/></g></g></g><g fill="#000000" fill-opacity="1"><g transform="translate(37.265262, 62.573092)"><g><path d="M 8.15625 -5.03125 L 14.5625 -5.03125 L 14.5625 0 L 1.5 0 L 1.5 -21.21875 L 8.15625 -21.21875 Z M 8.15625 -5.03125 "/></g></g></g><g fill="#000000" fill-opacity="1"><g transform="translate(52.431267, 62.573092)"><g><path d="M 15.109375 -3.203125 L 8.03125 -3.203125 L 6.984375 0 L 0 0 L 7.765625 -21.21875 L 15.4375 -21.21875 L 23.171875 0 L 16.15625 0 Z M 13.484375 -8.21875 L 11.5625 -14.109375 L 9.65625 -8.21875 Z M 13.484375 -8.21875 "/></g></g></g><g fill="#000000" fill-opacity="1"><g transform="translate(75.599894, 62.573092)"><g><path d="M 0.90625 -10.640625 C 0.90625 -12.734375 1.328125 -14.597656 2.171875 -16.234375 C 3.023438 -17.878906 4.238281 -19.15625 5.8125 -20.0625 C 7.394531 -20.96875 9.253906 -21.421875 11.390625 -21.421875 C 13.222656 -21.421875 14.863281 -21.078125 16.3125 -20.390625 C 17.757812 -19.703125 18.9375 -18.726562 19.84375 -17.46875 C 20.757812 -16.207031 21.367188 -14.738281 21.671875 -13.0625 L 14.65625 -13.0625 C 14.332031 -13.757812 13.875 -14.300781 13.28125 -14.6875 C 12.695312 -15.082031 12.023438 -15.28125 11.265625 -15.28125 C 10.148438 -15.28125 9.265625 -14.859375 8.609375 -14.015625 C 7.960938 -13.179688 7.640625 -12.054688 7.640625 -10.640625 C 7.640625 -9.222656 7.960938 -8.09375 8.609375 -7.25 C 9.265625 -6.414062 10.148438 -6 11.265625 -6 C 12.023438 -6 12.695312 -6.191406 13.28125 -6.578125 C 13.875 -6.960938 14.332031 -7.507812 14.65625 -8.21875 L 21.671875 -8.21875 C 21.367188 -6.53125 20.757812 -5.054688 19.84375 -3.796875 C 18.9375 -2.546875 17.757812 -1.570312 16.3125 -0.875 C 14.863281 -0.1875 13.222656 0.15625 11.390625 0.15625 C 9.253906 0.15625 7.394531 -0.296875 5.8125 -1.203125 C 4.238281 -2.117188 3.023438 -3.394531 2.171875 -5.03125 C 1.328125 -6.664062 0.90625 -8.535156 0.90625 -10.640625 Z M 0.90625 -10.640625 "/></g></g></g><g fill="#000000" fill-opacity="1"><g transform="translate(98.169079, 62.573092)"><g><path d="M 8.15625 -15.90625 L 8.15625 -13.3125 L 14.75 -13.3125 L 14.75 -8.296875 L 8.15625 -8.296875 L 8.15625 -5.296875 L 15.640625 -5.296875 L 15.640625 0 L 1.5 0 L 1.5 -21.21875 L 15.640625 -21.21875 L 15.640625 -15.90625 Z M 8.15625 -15.90625 "/></g></g></g><g fill="#000000" fill-opacity="1"><g transform="translate(114.833712, 62.573092)"><g/></g></g><g fill="#000000" fill-opacity="1"><g transform="translate(119.929015, 62.573092)"><g><path d="M 21.875 -21.21875 L 14.265625 -6.4375 L 14.265625 0 L 7.609375 0 L 7.609375 -6.4375 L 0 -21.21875 L 7.609375 -21.21875 L 11 -13.703125 L 14.390625 -21.21875 Z M 21.875 -21.21875 "/></g></g></g><g fill="#000000" fill-opacity="1"><g transform="translate(141.808833, 62.573092)"><g><path d="M 11.84375 0.203125 C 9.84375 0.203125 8.007812 -0.265625 6.34375 -1.203125 C 4.675781 -2.140625 3.351562 -3.4375 2.375 -5.09375 C 1.394531 -6.75 0.90625 -8.617188 0.90625 -10.703125 C 0.90625 -12.773438 1.394531 -14.640625 2.375 -16.296875 C 3.351562 -17.960938 4.675781 -19.257812 6.34375 -20.1875 C 8.007812 -21.113281 9.84375 -21.578125 11.84375 -21.578125 C 13.832031 -21.578125 15.65625 -21.113281 17.3125 -20.1875 C 18.976562 -19.257812 20.296875 -17.960938 21.265625 -16.296875 C 22.234375 -14.640625 22.71875 -12.773438 22.71875 -10.703125 C 22.71875 -8.617188 22.234375 -6.75 21.265625 -5.09375 C 20.296875 -3.4375 18.972656 -2.140625 17.296875 -1.203125 C 15.628906 -0.265625 13.8125 0.203125 11.84375 0.203125 Z M 11.84375 -6 C 13.15625 -6 14.171875 -6.421875 14.890625 -7.265625 C 15.609375 -8.117188 15.96875 -9.265625 15.96875 -10.703125 C 15.96875 -12.160156 15.609375 -13.3125 14.890625 -14.15625 C 14.171875 -15.007812 13.15625 -15.4375 11.84375 -15.4375 C 10.5 -15.4375 9.46875 -15.007812 8.75 -14.15625 C 8.03125 -13.3125 7.671875 -12.160156 7.671875 -10.703125 C 7.671875 -9.265625 8.03125 -8.117188 8.75 -7.265625 C 9.46875 -6.421875 10.5 -6 11.84375 -6 Z M 11.84375 -6 "/></g></g></g><g fill="#000000" fill-opacity="1"><g transform="translate(165.427041, 62.573092)"><g><path d="M 8 -21.21875 L 8 -9.265625 C 8 -8.285156 8.210938 -7.507812 8.640625 -6.9375 C 9.078125 -6.363281 9.773438 -6.078125 10.734375 -6.078125 C 11.691406 -6.078125 12.398438 -6.363281 12.859375 -6.9375 C 13.316406 -7.507812 13.546875 -8.285156 13.546875 -9.265625 L 13.546875 -21.21875 L 20.171875 -21.21875 L 20.171875 -9.265625 C 20.171875 -7.242188 19.75 -5.519531 18.90625 -4.09375 C 18.070312 -2.664062 16.925781 -1.59375 15.46875 -0.875 C 14.007812 -0.15625 12.378906 0.203125 10.578125 0.203125 C 8.773438 0.203125 7.179688 -0.15625 5.796875 -0.875 C 4.410156 -1.59375 3.328125 -2.660156 2.546875 -4.078125 C 1.765625 -5.492188 1.375 -7.222656 1.375 -9.265625 L 1.375 -21.21875 Z M 8 -21.21875 "/></g></g></g><g fill="#000000" fill-opacity="1"><g transform="translate(186.977158, 62.573092)"><g><path d="M 12.171875 0 L 8.1875 -7.609375 L 8.15625 -7.609375 L 8.15625 0 L 1.5 0 L 1.5 -21.21875 L 11.390625 -21.21875 C 13.109375 -21.21875 14.578125 -20.910156 15.796875 -20.296875 C 17.015625 -19.691406 17.925781 -18.863281 18.53125 -17.8125 C 19.144531 -16.769531 19.453125 -15.585938 19.453125 -14.265625 C 19.453125 -12.847656 19.054688 -11.585938 18.265625 -10.484375 C 17.472656 -9.390625 16.335938 -8.601562 14.859375 -8.125 L 19.484375 0 Z M 8.15625 -12.046875 L 10.78125 -12.046875 C 11.425781 -12.046875 11.90625 -12.191406 12.21875 -12.484375 C 12.539062 -12.773438 12.703125 -13.226562 12.703125 -13.84375 C 12.703125 -14.40625 12.535156 -14.84375 12.203125 -15.15625 C 11.878906 -15.476562 11.40625 -15.640625 10.78125 -15.640625 L 8.15625 -15.640625 Z M 8.15625 -12.046875 "/></g></g></g><g fill="#000000" fill-opacity="1"><g transform="translate(48.136863, 103.801088)"><g><path d="M 15.109375 -3.203125 L 8.03125 -3.203125 L 6.984375 0 L 0 0 L 7.765625 -21.21875 L 15.4375 -21.21875 L 23.171875 0 L 16.15625 0 Z M 13.484375 -8.21875 L 11.5625 -14.109375 L 9.65625 -8.21875 Z M 13.484375 -8.21875 "/></g></g></g><g fill="#000000" fill-opacity="1"><g transform="translate(71.30549, 103.801088)"><g><path d="M 10.34375 -21.21875 C 12.5625 -21.21875 14.503906 -20.765625 16.171875 -19.859375 C 17.835938 -18.960938 19.117188 -17.710938 20.015625 -16.109375 C 20.921875 -14.515625 21.375 -12.703125 21.375 -10.671875 C 21.375 -8.648438 20.921875 -6.828125 20.015625 -5.203125 C 19.117188 -3.585938 17.835938 -2.316406 16.171875 -1.390625 C 14.503906 -0.460938 12.5625 0 10.34375 0 L 1.5 0 L 1.5 -21.21875 Z M 9.734375 -5.9375 C 11.234375 -5.9375 12.421875 -6.34375 13.296875 -7.15625 C 14.179688 -7.976562 14.625 -9.148438 14.625 -10.671875 C 14.625 -12.191406 14.179688 -13.359375 13.296875 -14.171875 C 12.421875 -14.992188 11.234375 -15.40625 9.734375 -15.40625 L 8.15625 -15.40625 L 8.15625 -5.9375 Z M 9.734375 -5.9375 "/></g></g></g><g fill="#000000" fill-opacity="1"><g transform="translate(93.574942, 103.801088)"><g><path d="M 22.859375 -21.21875 L 15.734375 0 L 7.125 0 L 0 -21.21875 L 7.078125 -21.21875 L 11.453125 -6.625 L 15.796875 -21.21875 Z M 22.859375 -21.21875 "/></g></g></g><g fill="#000000" fill-opacity="1"><g transform="translate(116.443848, 103.801088)"><g><path d="M 8.15625 -15.90625 L 8.15625 -13.3125 L 14.75 -13.3125 L 14.75 -8.296875 L 8.15625 -8.296875 L 8.15625 -5.296875 L 15.640625 -5.296875 L 15.640625 0 L 1.5 0 L 1.5 -21.21875 L 15.640625 -21.21875 L 15.640625 -15.90625 Z M 8.15625 -15.90625 "/></g></g></g><g fill="#000000" fill-opacity="1"><g transform="translate(133.108481, 103.801088)"><g><path d="M 12.171875 0 L 8.1875 -7.609375 L 8.15625 -7.609375 L 8.15625 0 L 1.5 0 L 1.5 -21.21875 L 11.390625 -21.21875 C 13.109375 -21.21875 14.578125 -20.910156 15.796875 -20.296875 C 17.015625 -19.691406 17.925781 -18.863281 18.53125 -17.8125 C 19.144531 -16.769531 19.453125 -15.585938 19.453125 -14.265625 C 19.453125 -12.847656 19.054688 -11.585938 18.265625 -10.484375 C 17.472656 -9.390625 16.335938 -8.601562 14.859375 -8.125 L 19.484375 0 Z M 8.15625 -12.046875 L 10.78125 -12.046875 C 11.425781 -12.046875 11.90625 -12.191406 12.21875 -12.484375 C 12.539062 -12.773438 12.703125 -13.226562 12.703125 -13.84375 C 12.703125 -14.40625 12.535156 -14.84375 12.203125 -15.15625 C 11.878906 -15.476562 11.40625 -15.640625 10.78125 -15.640625 L 8.15625 -15.640625 Z M 8.15625 -12.046875 "/></g></g></g><g fill="#000000" fill-opacity="1"><g transform="translate(153.189961, 103.801088)"><g><path d="M 18.15625 -21.21875 L 18.15625 -15.9375 L 12.53125 -15.9375 L 12.53125 0 L 5.875 0 L 5.875 -15.9375 L 0.296875 -15.9375 L 0.296875 -21.21875 Z M 18.15625 -21.21875 "/></g></g></g><g fill="#000000" fill-opacity="1"><g transform="translate(171.645168, 103.801088)"><g/></g></g><g fill="#000000" fill-opacity="1"><g transform="translate(74.419711, 145.029085)"><g><path d="M 21.125 -21.21875 L 21.125 0 L 14.46875 0 L 14.46875 -8.265625 L 8.15625 -8.265625 L 8.15625 0 L 1.5 0 L 1.5 -21.21875 L 8.15625 -21.21875 L 8.15625 -13.578125 L 14.46875 -13.578125 L 14.46875 -21.21875 Z M 21.125 -21.21875 "/></g></g></g><g fill="#000000" fill-opacity="1"><g transform="translate(97.048842, 145.029085)"><g><path d="M 8.15625 -15.90625 L 8.15625 -13.3125 L 14.75 -13.3125 L 14.75 -8.296875 L 8.15625 -8.296875 L 8.15625 -5.296875 L 15.640625 -5.296875 L 15.640625 0 L 1.5 0 L 1.5 -21.21875 L 15.640625 -21.21875 L 15.640625 -15.90625 Z M 8.15625 -15.90625 "/></g></g></g><g fill="#000000" fill-opacity="1"><g transform="translate(113.713475, 145.029085)"><g><path d="M 12.171875 0 L 8.1875 -7.609375 L 8.15625 -7.609375 L 8.15625 0 L 1.5 0 L 1.5 -21.21875 L 11.390625 -21.21875 C 13.109375 -21.21875 14.578125 -20.910156 15.796875 -20.296875 C 17.015625 -19.691406 17.925781 -18.863281 18.53125 -17.8125 C 19.144531 -16.769531 19.453125 -15.585938 19.453125 -14.265625 C 19.453125 -12.847656 19.054688 -11.585938 18.265625 -10.484375 C 17.472656 -9.390625 16.335938 -8.601562 14.859375 -8.125 L 19.484375 0 Z M 8.15625 -12.046875 L 10.78125 -12.046875 C 11.425781 -12.046875 11.90625 -12.191406 12.21875 -12.484375 C 12.539062 -12.773438 12.703125 -13.226562 12.703125 -13.84375 C 12.703125 -14.40625 12.535156 -14.84375 12.203125 -15.15625 C 11.878906 -15.476562 11.40625 -15.640625 10.78125 -15.640625 L 8.15625 -15.640625 Z M 8.15625 -12.046875 "/></g></g></g><g fill="#000000" fill-opacity="1"><g transform="translate(133.794955, 145.029085)"><g><path d="M 8.15625 -15.90625 L 8.15625 -13.3125 L 14.75 -13.3125 L 14.75 -8.296875 L 8.15625 -8.296875 L 8.15625 -5.296875 L 15.640625 -5.296875 L 15.640625 0 L 1.5 0 L 1.5 -21.21875 L 15.640625 -21.21875 L 15.640625 -15.90625 Z M 8.15625 -15.90625 "/></g></g></g><g clip-path="url(#252fb472c0)"><path fill="#000000" d="M 144.804688 197.183594 L 80.078125 197.183594 C 73.105469 197.183594 67.464844 191.5 67.464844 184.476562 C 67.464844 177.453125 73.105469 171.769531 80.078125 171.769531 L 144.804688 171.769531 C 151.777344 171.769531 157.414062 177.453125 157.414062 184.476562 C 157.414062 191.5 151.757812 197.183594 144.804688 197.183594 Z M 144.804688 197.183594 " fill-opacity="1" fill-rule="nonzero"/></g><g fill="#ffffff" fill-opacity="1"><g transform="translate(79.516155, 187.380865)"><g><path d="M 0.296875 -3.546875 C 0.296875 -4.242188 0.4375 -4.863281 0.71875 -5.40625 C 1 -5.957031 1.398438 -6.382812 1.921875 -6.6875 C 2.453125 -6.988281 3.078125 -7.140625 3.796875 -7.140625 C 4.410156 -7.140625 4.957031 -7.023438 5.4375 -6.796875 C 5.914062 -6.566406 6.304688 -6.238281 6.609375 -5.8125 C 6.910156 -5.394531 7.113281 -4.910156 7.21875 -4.359375 L 4.875 -4.359375 C 4.769531 -4.585938 4.617188 -4.765625 4.421875 -4.890625 C 4.234375 -5.023438 4.007812 -5.09375 3.75 -5.09375 C 3.375 -5.09375 3.078125 -4.953125 2.859375 -4.671875 C 2.648438 -4.390625 2.546875 -4.015625 2.546875 -3.546875 C 2.546875 -3.066406 2.648438 -2.6875 2.859375 -2.40625 C 3.078125 -2.132812 3.375 -2 3.75 -2 C 4.007812 -2 4.234375 -2.0625 4.421875 -2.1875 C 4.617188 -2.320312 4.769531 -2.503906 4.875 -2.734375 L 7.21875 -2.734375 C 7.113281 -2.171875 6.910156 -1.679688 6.609375 -1.265625 C 6.304688 -0.847656 5.914062 -0.523438 5.4375 -0.296875 C 4.957031 -0.0664062 4.410156 0.046875 3.796875 0.046875 C 3.078125 0.046875 2.453125 -0.101562 1.921875 -0.40625 C 1.398438 -0.707031 1 -1.128906 0.71875 -1.671875 C 0.4375 -2.222656 0.296875 -2.847656 0.296875 -3.546875 Z M 0.296875 -3.546875 "/></g></g></g><g fill="#ffffff" fill-opacity="1"><g transform="translate(87.039171, 187.380865)"><g><path d="M 3.9375 0.0625 C 3.28125 0.0625 2.671875 -0.09375 2.109375 -0.40625 C 1.554688 -0.71875 1.113281 -1.148438 0.78125 -1.703125 C 0.457031 -2.253906 0.296875 -2.875 0.296875 -3.5625 C 0.296875 -4.257812 0.457031 -4.882812 0.78125 -5.4375 C 1.113281 -5.988281 1.554688 -6.414062 2.109375 -6.71875 C 2.671875 -7.03125 3.28125 -7.1875 3.9375 -7.1875 C 4.601562 -7.1875 5.210938 -7.03125 5.765625 -6.71875 C 6.316406 -6.414062 6.753906 -5.988281 7.078125 -5.4375 C 7.398438 -4.882812 7.5625 -4.257812 7.5625 -3.5625 C 7.5625 -2.875 7.398438 -2.253906 7.078125 -1.703125 C 6.753906 -1.148438 6.316406 -0.71875 5.765625 -0.40625 C 5.210938 -0.09375 4.601562 0.0625 3.9375 0.0625 Z M 3.9375 -2 C 4.382812 -2 4.726562 -2.140625 4.96875 -2.421875 C 5.207031 -2.703125 5.328125 -3.082031 5.328125 -3.5625 C 5.328125 -4.050781 5.207031 -4.4375 4.96875 -4.71875 C 4.726562 -5 4.382812 -5.140625 3.9375 -5.140625 C 3.5 -5.140625 3.160156 -5 2.921875 -4.71875 C 2.679688 -4.4375 2.5625 -4.050781 2.5625 -3.5625 C 2.5625 -3.082031 2.679688 -2.703125 2.921875 -2.421875 C 3.160156 -2.140625 3.5 -2 3.9375 -2 Z M 3.9375 -2 "/></g></g></g><g fill="#ffffff" fill-opacity="1"><g transform="translate(94.911858, 187.380865)"><g><path d="M 7.28125 0 L 5.0625 0 L 2.71875 -3.546875 L 2.71875 0 L 0.5 0 L 0.5 -7.0625 L 2.71875 -7.0625 L 5.0625 -3.453125 L 5.0625 -7.0625 L 7.28125 -7.0625 Z M 7.28125 0 "/></g></g></g><g fill="#ffffff" fill-opacity="1"><g transform="translate(102.69463, 187.380865)"><g><path d="M 6.046875 -7.0625 L 6.046875 -5.3125 L 4.171875 -5.3125 L 4.171875 0 L 1.953125 0 L 1.953125 -5.3125 L 0.09375 -5.3125 L 0.09375 -7.0625 Z M 6.046875 -7.0625 "/></g></g></g><g fill="#ffffff" fill-opacity="1"><g transform="translate(108.848919, 187.380865)"><g><path d="M 5.03125 -1.0625 L 2.671875 -1.0625 L 2.328125 0 L 0 0 L 2.59375 -7.0625 L 5.140625 -7.0625 L 7.71875 0 L 5.375 0 Z M 4.5 -2.734375 L 3.859375 -4.703125 L 3.21875 -2.734375 Z M 4.5 -2.734375 "/></g></g></g><g fill="#ffffff" fill-opacity="1"><g transform="translate(116.571745, 187.380865)"><g><path d="M 0.296875 -3.546875 C 0.296875 -4.242188 0.4375 -4.863281 0.71875 -5.40625 C 1 -5.957031 1.398438 -6.382812 1.921875 -6.6875 C 2.453125 -6.988281 3.078125 -7.140625 3.796875 -7.140625 C 4.410156 -7.140625 4.957031 -7.023438 5.4375 -6.796875 C 5.914062 -6.566406 6.304688 -6.238281 6.609375 -5.8125 C 6.910156 -5.394531 7.113281 -4.910156 7.21875 -4.359375 L 4.875 -4.359375 C 4.769531 -4.585938 4.617188 -4.765625 4.421875 -4.890625 C 4.234375 -5.023438 4.007812 -5.09375 3.75 -5.09375 C 3.375 -5.09375 3.078125 -4.953125 2.859375 -4.671875 C 2.648438 -4.390625 2.546875 -4.015625 2.546875 -3.546875 C 2.546875 -3.066406 2.648438 -2.6875 2.859375 -2.40625 C 3.078125 -2.132812 3.375 -2 3.75 -2 C 4.007812 -2 4.234375 -2.0625 4.421875 -2.1875 C 4.617188 -2.320312 4.769531 -2.503906 4.875 -2.734375 L 7.21875 -2.734375 C 7.113281 -2.171875 6.910156 -1.679688 6.609375 -1.265625 C 6.304688 -0.847656 5.914062 -0.523438 5.4375 -0.296875 C 4.957031 -0.0664062 4.410156 0.046875 3.796875 0.046875 C 3.078125 0.046875 2.453125 -0.101562 1.921875 -0.40625 C 1.398438 -0.707031 1 -1.128906 0.71875 -1.671875 C 0.4375 -2.222656 0.296875 -2.847656 0.296875 -3.546875 Z M 0.296875 -3.546875 "/></g></g></g><g fill="#ffffff" fill-opacity="1"><g transform="translate(124.094761, 187.380865)"><g><path d="M 6.046875 -7.0625 L 6.046875 -5.3125 L 4.171875 -5.3125 L 4.171875 0 L 1.953125 0 L 1.953125 -5.3125 L 0.09375 -5.3125 L 0.09375 -7.0625 Z M 6.046875 -7.0625 "/></g></g></g><g fill="#ffffff" fill-opacity="1"><g transform="translate(130.24905, 187.380865)"><g/></g></g><g fill="#ffffff" fill-opacity="1"><g transform="translate(131.947477, 187.380865)"><g><path d="M 2.671875 -7.0625 L 2.671875 -3.078125 C 2.671875 -2.753906 2.738281 -2.5 2.875 -2.3125 C 3.019531 -2.125 3.253906 -2.03125 3.578125 -2.03125 C 3.890625 -2.03125 4.125 -2.125 4.28125 -2.3125 C 4.4375 -2.5 4.515625 -2.753906 4.515625 -3.078125 L 4.515625 -7.0625 L 6.71875 -7.0625 L 6.71875 -3.078125 C 6.71875 -2.410156 6.578125 -1.835938 6.296875 -1.359375 C 6.015625 -0.890625 5.628906 -0.535156 5.140625 -0.296875 C 4.660156 -0.0546875 4.125 0.0625 3.53125 0.0625 C 2.925781 0.0625 2.390625 -0.0546875 1.921875 -0.296875 C 1.460938 -0.535156 1.101562 -0.890625 0.84375 -1.359375 C 0.582031 -1.828125 0.453125 -2.398438 0.453125 -3.078125 L 0.453125 -7.0625 Z M 2.671875 -7.0625 "/></g></g></g><g fill="#ffffff" fill-opacity="1"><g transform="translate(139.130808, 187.380865)"><g><path d="M 3.265625 0.0625 C 2.421875 0.0625 1.722656 -0.132812 1.171875 -0.53125 C 0.617188 -0.925781 0.320312 -1.503906 0.28125 -2.265625 L 2.640625 -2.265625 C 2.671875 -1.859375 2.847656 -1.65625 3.171875 -1.65625 C 3.296875 -1.65625 3.398438 -1.679688 3.484375 -1.734375 C 3.566406 -1.796875 3.609375 -1.882812 3.609375 -2 C 3.609375 -2.164062 3.515625 -2.300781 3.328125 -2.40625 C 3.148438 -2.507812 2.875 -2.628906 2.5 -2.765625 C 2.039062 -2.921875 1.660156 -3.078125 1.359375 -3.234375 C 1.066406 -3.390625 0.816406 -3.613281 0.609375 -3.90625 C 0.398438 -4.195312 0.296875 -4.570312 0.296875 -5.03125 C 0.296875 -5.488281 0.414062 -5.878906 0.65625 -6.203125 C 0.894531 -6.523438 1.21875 -6.769531 1.625 -6.9375 C 2.03125 -7.101562 2.488281 -7.1875 3 -7.1875 C 3.863281 -7.1875 4.550781 -6.984375 5.0625 -6.578125 C 5.570312 -6.179688 5.84375 -5.625 5.875 -4.90625 L 3.484375 -4.90625 C 3.472656 -5.101562 3.421875 -5.242188 3.328125 -5.328125 C 3.234375 -5.421875 3.125 -5.46875 3 -5.46875 C 2.90625 -5.46875 2.828125 -5.429688 2.765625 -5.359375 C 2.703125 -5.296875 2.671875 -5.210938 2.671875 -5.109375 C 2.671875 -4.941406 2.757812 -4.804688 2.9375 -4.703125 C 3.113281 -4.597656 3.394531 -4.472656 3.78125 -4.328125 C 4.226562 -4.160156 4.597656 -4 4.890625 -3.84375 C 5.179688 -3.695312 5.429688 -3.488281 5.640625 -3.21875 C 5.847656 -2.945312 5.953125 -2.601562 5.953125 -2.1875 C 5.953125 -1.75 5.847656 -1.359375 5.640625 -1.015625 C 5.429688 -0.679688 5.125 -0.414062 4.71875 -0.21875 C 4.3125 -0.03125 3.828125 0.0625 3.265625 0.0625 Z M 3.265625 0.0625 "/></g></g></g></svg>