<svg xmlns="http://www.w3.org/2000/svg" xmlns:xlink="http://www.w3.org/1999/xlink" width="300" zoomAndPan="magnify" viewBox="0 0 224.87999 225" height="300" preserveAspectRatio="xMidYMid meet" version="1.0"><defs><g/><clipPath id="a067355474"><path d="M 0 0.0585938 L 224.761719 0.0585938 L 224.761719 224.9375 L 0 224.9375 Z M 0 0.0585938 " clip-rule="nonzero"/></clipPath><clipPath id="cf16f839f4"><path d="M 67.464844 171.734375 L 157.414062 171.734375 L 157.414062 197.21875 L 67.464844 197.21875 Z M 67.464844 171.734375 " clip-rule="nonzero"/></clipPath></defs><g clip-path="url(#a067355474)"><path fill="#ffffff" d="M 0 0.0585938 L 224.878906 0.0585938 L 224.878906 232.4375 L 0 232.4375 Z M 0 0.0585938 " fill-opacity="1" fill-rule="nonzero"/><path fill="#ffffff" d="M 0 0.0585938 L 224.878906 0.0585938 L 224.878906 224.941406 L 0 224.941406 Z M 0 0.0585938 " fill-opacity="1" fill-rule="nonzero"/><path fill="#927ef4" d="M 0 0.0585938 L 224.878906 0.0585938 L 224.878906 224.941406 L 0 224.941406 Z M 0 0.0585938 " fill-opacity="1" fill-rule="nonzero"/></g><g fill="#000000" fill-opacity="1"><g transform="translate(22.029703, 61.923436)"><g><path d="M 17.765625 -13.625 C 17.765625 -12.382812 17.476562 -11.253906 16.90625 -10.234375 C 16.34375 -9.222656 15.484375 -8.410156 14.328125 -7.796875 C 13.179688 -7.191406 11.773438 -6.890625 10.109375 -6.890625 L 7.296875 -6.890625 L 7.296875 0 L 1.625 0 L 1.625 -20.4375 L 10.109375 -20.4375 C 11.753906 -20.4375 13.148438 -20.144531 14.296875 -19.5625 C 15.453125 -18.976562 16.316406 -18.175781 16.890625 -17.15625 C 17.472656 -16.132812 17.765625 -14.957031 17.765625 -13.625 Z M 9.5625 -11.421875 C 11.164062 -11.421875 11.96875 -12.15625 11.96875 -13.625 C 11.96875 -15.113281 11.164062 -15.859375 9.5625 -15.859375 L 7.296875 -15.859375 L 7.296875 -11.421875 Z M 9.5625 -11.421875 "/></g></g></g><g fill="#000000" fill-opacity="1"><g transform="translate(40.458897, 61.923436)"><g><path d="M 7.296875 -4.34375 L 13.65625 -4.34375 L 13.65625 0 L 1.625 0 L 1.625 -20.4375 L 7.296875 -20.4375 Z M 7.296875 -4.34375 "/></g></g></g><g fill="#000000" fill-opacity="1"><g transform="translate(54.68646, 61.923436)"><g><path d="M 14.546875 -3.328125 L 7.296875 -3.328125 L 6.203125 0 L 0.234375 0 L 7.6875 -20.4375 L 14.234375 -20.4375 L 21.65625 0 L 15.65625 0 Z M 13.125 -7.6875 L 10.921875 -14.296875 L 8.75 -7.6875 Z M 13.125 -7.6875 "/></g></g></g><g fill="#000000" fill-opacity="1"><g transform="translate(76.563875, 61.923436)"><g><path d="M 0.921875 -10.265625 C 0.921875 -12.273438 1.34375 -14.066406 2.1875 -15.640625 C 3.03125 -17.210938 4.222656 -18.4375 5.765625 -19.3125 C 7.316406 -20.195312 9.09375 -20.640625 11.09375 -20.640625 C 13.644531 -20.640625 15.789062 -19.957031 17.53125 -18.59375 C 19.269531 -17.226562 20.390625 -15.378906 20.890625 -13.046875 L 14.78125 -13.046875 C 14.414062 -13.816406 13.910156 -14.40625 13.265625 -14.8125 C 12.617188 -15.21875 11.867188 -15.421875 11.015625 -15.421875 C 9.703125 -15.421875 8.65625 -14.953125 7.875 -14.015625 C 7.09375 -13.078125 6.703125 -11.828125 6.703125 -10.265625 C 6.703125 -8.679688 7.09375 -7.421875 7.875 -6.484375 C 8.65625 -5.546875 9.703125 -5.078125 11.015625 -5.078125 C 11.867188 -5.078125 12.617188 -5.28125 13.265625 -5.6875 C 13.910156 -6.09375 14.414062 -6.679688 14.78125 -7.453125 L 20.890625 -7.453125 C 20.390625 -5.109375 19.269531 -3.253906 17.53125 -1.890625 C 15.789062 -0.535156 13.644531 0.140625 11.09375 0.140625 C 9.09375 0.140625 7.316406 -0.296875 5.765625 -1.171875 C 4.222656 -2.054688 3.03125 -3.285156 2.1875 -4.859375 C 1.34375 -6.429688 0.921875 -8.234375 0.921875 -10.265625 Z M 0.921875 -10.265625 "/></g></g></g><g fill="#000000" fill-opacity="1"><g transform="translate(98.528219, 61.923436)"><g><path d="M 7.296875 -15.890625 L 7.296875 -12.546875 L 13.828125 -12.546875 L 13.828125 -8.234375 L 7.296875 -8.234375 L 7.296875 -4.546875 L 14.6875 -4.546875 L 14.6875 0 L 1.625 0 L 1.625 -20.4375 L 14.6875 -20.4375 L 14.6875 -15.890625 Z M 7.296875 -15.890625 "/></g></g></g><g fill="#000000" fill-opacity="1"><g transform="translate(114.407462, 61.923436)"><g/></g></g><g fill="#000000" fill-opacity="1"><g transform="translate(119.942019, 61.923436)"><g><path d="M 20.203125 -20.4375 L 13.015625 -6.5 L 13.015625 0 L 7.296875 0 L 7.296875 -6.5 L 0.109375 -20.4375 L 6.609375 -20.4375 L 10.203125 -12.546875 L 13.796875 -20.4375 Z M 20.203125 -20.4375 "/></g></g></g><g fill="#000000" fill-opacity="1"><g transform="translate(140.254694, 61.923436)"><g><path d="M 11.421875 0.203125 C 9.503906 0.203125 7.742188 -0.242188 6.140625 -1.140625 C 4.535156 -2.046875 3.265625 -3.296875 2.328125 -4.890625 C 1.390625 -6.484375 0.921875 -8.285156 0.921875 -10.296875 C 0.921875 -12.296875 1.390625 -14.09375 2.328125 -15.6875 C 3.265625 -17.289062 4.535156 -18.535156 6.140625 -19.421875 C 7.742188 -20.304688 9.503906 -20.75 11.421875 -20.75 C 13.347656 -20.75 15.109375 -20.304688 16.703125 -19.421875 C 18.296875 -18.535156 19.554688 -17.289062 20.484375 -15.6875 C 21.421875 -14.09375 21.890625 -12.296875 21.890625 -10.296875 C 21.890625 -8.285156 21.421875 -6.484375 20.484375 -4.890625 C 19.554688 -3.296875 18.289062 -2.046875 16.6875 -1.140625 C 15.09375 -0.242188 13.335938 0.203125 11.421875 0.203125 Z M 11.421875 -5.078125 C 12.867188 -5.078125 14.007812 -5.546875 14.84375 -6.484375 C 15.6875 -7.429688 16.109375 -8.703125 16.109375 -10.296875 C 16.109375 -11.910156 15.6875 -13.1875 14.84375 -14.125 C 14.007812 -15.0625 12.867188 -15.53125 11.421875 -15.53125 C 9.953125 -15.53125 8.800781 -15.0625 7.96875 -14.125 C 7.132812 -13.1875 6.71875 -11.910156 6.71875 -10.296875 C 6.71875 -8.691406 7.132812 -7.421875 7.96875 -6.484375 C 8.800781 -5.546875 9.953125 -5.078125 11.421875 -5.078125 Z M 11.421875 -5.078125 "/></g></g></g><g fill="#000000" fill-opacity="1"><g transform="translate(163.059364, 61.923436)"><g><path d="M 7.1875 -20.4375 L 7.1875 -8.578125 C 7.1875 -7.472656 7.441406 -6.617188 7.953125 -6.015625 C 8.460938 -5.421875 9.242188 -5.125 10.296875 -5.125 C 11.335938 -5.125 12.125 -5.425781 12.65625 -6.03125 C 13.1875 -6.644531 13.453125 -7.492188 13.453125 -8.578125 L 13.453125 -20.4375 L 19.125 -20.4375 L 19.125 -8.578125 C 19.125 -6.703125 18.726562 -5.101562 17.9375 -3.78125 C 17.144531 -2.457031 16.066406 -1.460938 14.703125 -0.796875 C 13.347656 -0.128906 11.835938 0.203125 10.171875 0.203125 C 8.515625 0.203125 7.03125 -0.128906 5.71875 -0.796875 C 4.414062 -1.460938 3.390625 -2.453125 2.640625 -3.765625 C 1.898438 -5.078125 1.53125 -6.679688 1.53125 -8.578125 L 1.53125 -20.4375 Z M 7.1875 -20.4375 "/></g></g></g><g fill="#000000" fill-opacity="1"><g transform="translate(183.690783, 61.923436)"><g><path d="M 11.96875 0 L 7.90625 -7.53125 L 7.296875 -7.53125 L 7.296875 0 L 1.625 0 L 1.625 -20.4375 L 10.578125 -20.4375 C 12.222656 -20.4375 13.613281 -20.148438 14.75 -19.578125 C 15.894531 -19.003906 16.753906 -18.21875 17.328125 -17.21875 C 17.910156 -16.226562 18.203125 -15.117188 18.203125 -13.890625 C 18.203125 -12.492188 17.816406 -11.269531 17.046875 -10.21875 C 16.285156 -9.164062 15.171875 -8.414062 13.703125 -7.96875 L 18.3125 0 Z M 7.296875 -11.421875 L 10.109375 -11.421875 C 10.890625 -11.421875 11.472656 -11.601562 11.859375 -11.96875 C 12.242188 -12.332031 12.4375 -12.863281 12.4375 -13.5625 C 12.4375 -14.21875 12.238281 -14.734375 11.84375 -15.109375 C 11.445312 -15.492188 10.867188 -15.6875 10.109375 -15.6875 L 7.296875 -15.6875 Z M 7.296875 -11.421875 "/></g></g></g><g fill="#000000" fill-opacity="1"><g transform="translate(50.994713, 102.401833)"><g><path d="M 14.546875 -3.328125 L 7.296875 -3.328125 L 6.203125 0 L 0.234375 0 L 7.6875 -20.4375 L 14.234375 -20.4375 L 21.65625 0 L 15.65625 0 Z M 13.125 -7.6875 L 10.921875 -14.296875 L 8.75 -7.6875 Z M 13.125 -7.6875 "/></g></g></g><g fill="#000000" fill-opacity="1"><g transform="translate(72.872128, 102.401833)"><g><path d="M 9.703125 -20.4375 C 11.847656 -20.4375 13.726562 -20.003906 15.34375 -19.140625 C 16.957031 -18.285156 18.195312 -17.082031 19.0625 -15.53125 C 19.9375 -13.988281 20.375 -12.222656 20.375 -10.234375 C 20.375 -8.265625 19.929688 -6.503906 19.046875 -4.953125 C 18.171875 -3.410156 16.925781 -2.195312 15.3125 -1.3125 C 13.695312 -0.4375 11.828125 0 9.703125 0 L 1.625 0 L 1.625 -20.4375 Z M 9.28125 -5.015625 C 10.9375 -5.015625 12.238281 -5.46875 13.1875 -6.375 C 14.132812 -7.28125 14.609375 -8.566406 14.609375 -10.234375 C 14.609375 -11.910156 14.132812 -13.207031 13.1875 -14.125 C 12.238281 -15.039062 10.9375 -15.5 9.28125 -15.5 L 7.296875 -15.5 L 7.296875 -5.015625 Z M 9.28125 -5.015625 "/></g></g></g><g fill="#000000" fill-opacity="1"><g transform="translate(94.170014, 102.401833)"><g><path d="M 21.5 -20.4375 L 14.46875 0 L 7.1875 0 L 0.109375 -20.4375 L 6.203125 -20.4375 L 10.84375 -5.6875 L 15.453125 -20.4375 Z M 21.5 -20.4375 "/></g></g></g><g fill="#000000" fill-opacity="1"><g transform="translate(115.815616, 102.401833)"><g><path d="M 7.296875 -15.890625 L 7.296875 -12.546875 L 13.828125 -12.546875 L 13.828125 -8.234375 L 7.296875 -8.234375 L 7.296875 -4.546875 L 14.6875 -4.546875 L 14.6875 0 L 1.625 0 L 1.625 -20.4375 L 14.6875 -20.4375 L 14.6875 -15.890625 Z M 7.296875 -15.890625 "/></g></g></g><g fill="#000000" fill-opacity="1"><g transform="translate(131.694859, 102.401833)"><g><path d="M 11.96875 0 L 7.90625 -7.53125 L 7.296875 -7.53125 L 7.296875 0 L 1.625 0 L 1.625 -20.4375 L 10.578125 -20.4375 C 12.222656 -20.4375 13.613281 -20.148438 14.75 -19.578125 C 15.894531 -19.003906 16.753906 -18.21875 17.328125 -17.21875 C 17.910156 -16.226562 18.203125 -15.117188 18.203125 -13.890625 C 18.203125 -12.492188 17.816406 -11.269531 17.046875 -10.21875 C 16.285156 -9.164062 15.171875 -8.414062 13.703125 -7.96875 L 18.3125 0 Z M 7.296875 -11.421875 L 10.109375 -11.421875 C 10.890625 -11.421875 11.472656 -11.601562 11.859375 -11.96875 C 12.242188 -12.332031 12.4375 -12.863281 12.4375 -13.5625 C 12.4375 -14.21875 12.238281 -14.734375 11.84375 -15.109375 C 11.445312 -15.492188 10.867188 -15.6875 10.109375 -15.6875 L 7.296875 -15.6875 Z M 7.296875 -11.421875 "/></g></g></g><g fill="#000000" fill-opacity="1"><g transform="translate(150.848466, 102.401833)"><g><path d="M 17.015625 -20.4375 L 17.015625 -15.90625 L 11.5625 -15.90625 L 11.5625 0 L 5.890625 0 L 5.890625 -15.90625 L 0.5 -15.90625 L 0.5 -20.4375 Z M 17.015625 -20.4375 "/></g></g></g><g fill="#000000" fill-opacity="1"><g transform="translate(168.342244, 102.401833)"><g/></g></g><g fill="#000000" fill-opacity="1"><g transform="translate(76.223435, 142.880229)"><g><path d="M 19.90625 -20.4375 L 19.90625 0 L 14.234375 0 L 14.234375 -8.203125 L 7.296875 -8.203125 L 7.296875 0 L 1.625 0 L 1.625 -20.4375 L 7.296875 -20.4375 L 7.296875 -12.75 L 14.234375 -12.75 L 14.234375 -20.4375 Z M 19.90625 -20.4375 "/></g></g></g><g fill="#000000" fill-opacity="1"><g transform="translate(97.753136, 142.880229)"><g><path d="M 7.296875 -15.890625 L 7.296875 -12.546875 L 13.828125 -12.546875 L 13.828125 -8.234375 L 7.296875 -8.234375 L 7.296875 -4.546875 L 14.6875 -4.546875 L 14.6875 0 L 1.625 0 L 1.625 -20.4375 L 14.6875 -20.4375 L 14.6875 -15.890625 Z M 7.296875 -15.890625 "/></g></g></g><g fill="#000000" fill-opacity="1"><g transform="translate(113.632379, 142.880229)"><g><path d="M 11.96875 0 L 7.90625 -7.53125 L 7.296875 -7.53125 L 7.296875 0 L 1.625 0 L 1.625 -20.4375 L 10.578125 -20.4375 C 12.222656 -20.4375 13.613281 -20.148438 14.75 -19.578125 C 15.894531 -19.003906 16.753906 -18.21875 17.328125 -17.21875 C 17.910156 -16.226562 18.203125 -15.117188 18.203125 -13.890625 C 18.203125 -12.492188 17.816406 -11.269531 17.046875 -10.21875 C 16.285156 -9.164062 15.171875 -8.414062 13.703125 -7.96875 L 18.3125 0 Z M 7.296875 -11.421875 L 10.109375 -11.421875 C 10.890625 -11.421875 11.472656 -11.601562 11.859375 -11.96875 C 12.242188 -12.332031 12.4375 -12.863281 12.4375 -13.5625 C 12.4375 -14.21875 12.238281 -14.734375 11.84375 -15.109375 C 11.445312 -15.492188 10.867188 -15.6875 10.109375 -15.6875 L 7.296875 -15.6875 Z M 7.296875 -11.421875 "/></g></g></g><g fill="#000000" fill-opacity="1"><g transform="translate(132.785986, 142.880229)"><g><path d="M 7.296875 -15.890625 L 7.296875 -12.546875 L 13.828125 -12.546875 L 13.828125 -8.234375 L 7.296875 -8.234375 L 7.296875 -4.546875 L 14.6875 -4.546875 L 14.6875 0 L 1.625 0 L 1.625 -20.4375 L 14.6875 -20.4375 L 14.6875 -15.890625 Z M 7.296875 -15.890625 "/></g></g></g><g clip-path="url(#cf16f839f4)"><path fill="#000000" d="M 144.804688 197.183594 L 80.078125 197.183594 C 73.105469 197.183594 67.464844 191.5 67.464844 184.476562 C 67.464844 177.453125 73.105469 171.769531 80.078125 171.769531 L 144.804688 171.769531 C 151.777344 171.769531 157.414062 177.453125 157.414062 184.476562 C 157.414062 191.5 151.757812 197.183594 144.804688 197.183594 Z M 144.804688 197.183594 " fill-opacity="1" fill-rule="nonzero"/></g><g fill="#ffffff" fill-opacity="1"><g transform="translate(79.516155, 187.380865)"><g><path d="M 0.296875 -3.546875 C 0.296875 -4.242188 0.4375 -4.863281 0.71875 -5.40625 C 1 -5.957031 1.398438 -6.382812 1.921875 -6.6875 C 2.453125 -6.988281 3.078125 -7.140625 3.796875 -7.140625 C 4.410156 -7.140625 4.957031 -7.023438 5.4375 -6.796875 C 5.914062 -6.566406 6.304688 -6.238281 6.609375 -5.8125 C 6.910156 -5.394531 7.113281 -4.910156 7.21875 -4.359375 L 4.875 -4.359375 C 4.769531 -4.585938 4.617188 -4.765625 4.421875 -4.890625 C 4.234375 -5.023438 4.007812 -5.09375 3.75 -5.09375 C 3.375 -5.09375 3.078125 -4.953125 2.859375 -4.671875 C 2.648438 -4.390625 2.546875 -4.015625 2.546875 -3.546875 C 2.546875 -3.066406 2.648438 -2.6875 2.859375 -2.40625 C 3.078125 -2.132812 3.375 -2 3.75 -2 C 4.007812 -2 4.234375 -2.0625 4.421875 -2.1875 C 4.617188 -2.320312 4.769531 -2.503906 4.875 -2.734375 L 7.21875 -2.734375 C 7.113281 -2.171875 6.910156 -1.679688 6.609375 -1.265625 C 6.304688 -0.847656 5.914062 -0.523438 5.4375 -0.296875 C 4.957031 -0.0664062 4.410156 0.046875 3.796875 0.046875 C 3.078125 0.046875 2.453125 -0.101562 1.921875 -0.40625 C 1.398438 -0.707031 1 -1.128906 0.71875 -1.671875 C 0.4375 -2.222656 0.296875 -2.847656 0.296875 -3.546875 Z M 0.296875 -3.546875 "/></g></g></g><g fill="#ffffff" fill-opacity="1"><g transform="translate(87.039171, 187.380865)"><g><path d="M 3.9375 0.0625 C 3.28125 0.0625 2.671875 -0.09375 2.109375 -0.40625 C 1.554688 -0.71875 1.113281 -1.148438 0.78125 -1.703125 C 0.457031 -2.253906 0.296875 -2.875 0.296875 -3.5625 C 0.296875 -4.257812 0.457031 -4.882812 0.78125 -5.4375 C 1.113281 -5.988281 1.554688 -6.414062 2.109375 -6.71875 C 2.671875 -7.03125 3.28125 -7.1875 3.9375 -7.1875 C 4.601562 -7.1875 5.210938 -7.03125 5.765625 -6.71875 C 6.316406 -6.414062 6.753906 -5.988281 7.078125 -5.4375 C 7.398438 -4.882812 7.5625 -4.257812 7.5625 -3.5625 C 7.5625 -2.875 7.398438 -2.253906 7.078125 -1.703125 C 6.753906 -1.148438 6.316406 -0.71875 5.765625 -0.40625 C 5.210938 -0.09375 4.601562 0.0625 3.9375 0.0625 Z M 3.9375 -2 C 4.382812 -2 4.726562 -2.140625 4.96875 -2.421875 C 5.207031 -2.703125 5.328125 -3.082031 5.328125 -3.5625 C 5.328125 -4.050781 5.207031 -4.4375 4.96875 -4.71875 C 4.726562 -5 4.382812 -5.140625 3.9375 -5.140625 C 3.5 -5.140625 3.160156 -5 2.921875 -4.71875 C 2.679688 -4.4375 2.5625 -4.050781 2.5625 -3.5625 C 2.5625 -3.082031 2.679688 -2.703125 2.921875 -2.421875 C 3.160156 -2.140625 3.5 -2 3.9375 -2 Z M 3.9375 -2 "/></g></g></g><g fill="#ffffff" fill-opacity="1"><g transform="translate(94.911858, 187.380865)"><g><path d="M 7.28125 0 L 5.0625 0 L 2.71875 -3.546875 L 2.71875 0 L 0.5 0 L 0.5 -7.0625 L 2.71875 -7.0625 L 5.0625 -3.453125 L 5.0625 -7.0625 L 7.28125 -7.0625 Z M 7.28125 0 "/></g></g></g><g fill="#ffffff" fill-opacity="1"><g transform="translate(102.69463, 187.380865)"><g><path d="M 6.046875 -7.0625 L 6.046875 -5.3125 L 4.171875 -5.3125 L 4.171875 0 L 1.953125 0 L 1.953125 -5.3125 L 0.09375 -5.3125 L 0.09375 -7.0625 Z M 6.046875 -7.0625 "/></g></g></g><g fill="#ffffff" fill-opacity="1"><g transform="translate(108.848919, 187.380865)"><g><path d="M 5.03125 -1.0625 L 2.671875 -1.0625 L 2.328125 0 L 0 0 L 2.59375 -7.0625 L 5.140625 -7.0625 L 7.71875 0 L 5.375 0 Z M 4.5 -2.734375 L 3.859375 -4.703125 L 3.21875 -2.734375 Z M 4.5 -2.734375 "/></g></g></g><g fill="#ffffff" fill-opacity="1"><g transform="translate(116.571745, 187.380865)"><g><path d="M 0.296875 -3.546875 C 0.296875 -4.242188 0.4375 -4.863281 0.71875 -5.40625 C 1 -5.957031 1.398438 -6.382812 1.921875 -6.6875 C 2.453125 -6.988281 3.078125 -7.140625 3.796875 -7.140625 C 4.410156 -7.140625 4.957031 -7.023438 5.4375 -6.796875 C 5.914062 -6.566406 6.304688 -6.238281 6.609375 -5.8125 C 6.910156 -5.394531 7.113281 -4.910156 7.21875 -4.359375 L 4.875 -4.359375 C 4.769531 -4.585938 4.617188 -4.765625 4.421875 -4.890625 C 4.234375 -5.023438 4.007812 -5.09375 3.75 -5.09375 C 3.375 -5.09375 3.078125 -4.953125 2.859375 -4.671875 C 2.648438 -4.390625 2.546875 -4.015625 2.546875 -3.546875 C 2.546875 -3.066406 2.648438 -2.6875 2.859375 -2.40625 C 3.078125 -2.132812 3.375 -2 3.75 -2 C 4.007812 -2 4.234375 -2.0625 4.421875 -2.1875 C 4.617188 -2.320312 4.769531 -2.503906 4.875 -2.734375 L 7.21875 -2.734375 C 7.113281 -2.171875 6.910156 -1.679688 6.609375 -1.265625 C 6.304688 -0.847656 5.914062 -0.523438 5.4375 -0.296875 C 4.957031 -0.0664062 4.410156 0.046875 3.796875 0.046875 C 3.078125 0.046875 2.453125 -0.101562 1.921875 -0.40625 C 1.398438 -0.707031 1 -1.128906 0.71875 -1.671875 C 0.4375 -2.222656 0.296875 -2.847656 0.296875 -3.546875 Z M 0.296875 -3.546875 "/></g></g></g><g fill="#ffffff" fill-opacity="1"><g transform="translate(124.094761, 187.380865)"><g><path d="M 6.046875 -7.0625 L 6.046875 -5.3125 L 4.171875 -5.3125 L 4.171875 0 L 1.953125 0 L 1.953125 -5.3125 L 0.09375 -5.3125 L 0.09375 -7.0625 Z M 6.046875 -7.0625 "/></g></g></g><g fill="#ffffff" fill-opacity="1"><g transform="translate(130.24905, 187.380865)"><g/></g></g><g fill="#ffffff" fill-opacity="1"><g transform="translate(131.947477, 187.380865)"><g><path d="M 2.671875 -7.0625 L 2.671875 -3.078125 C 2.671875 -2.753906 2.738281 -2.5 2.875 -2.3125 C 3.019531 -2.125 3.253906 -2.03125 3.578125 -2.03125 C 3.890625 -2.03125 4.125 -2.125 4.28125 -2.3125 C 4.4375 -2.5 4.515625 -2.753906 4.515625 -3.078125 L 4.515625 -7.0625 L 6.71875 -7.0625 L 6.71875 -3.078125 C 6.71875 -2.410156 6.578125 -1.835938 6.296875 -1.359375 C 6.015625 -0.890625 5.628906 -0.535156 5.140625 -0.296875 C 4.660156 -0.0546875 4.125 0.0625 3.53125 0.0625 C 2.925781 0.0625 2.390625 -0.0546875 1.921875 -0.296875 C 1.460938 -0.535156 1.101562 -0.890625 0.84375 -1.359375 C 0.582031 -1.828125 0.453125 -2.398438 0.453125 -3.078125 L 0.453125 -7.0625 Z M 2.671875 -7.0625 "/></g></g></g><g fill="#ffffff" fill-opacity="1"><g transform="translate(139.130808, 187.380865)"><g><path d="M 3.265625 0.0625 C 2.421875 0.0625 1.722656 -0.132812 1.171875 -0.53125 C 0.617188 -0.925781 0.320312 -1.503906 0.28125 -2.265625 L 2.640625 -2.265625 C 2.671875 -1.859375 2.847656 -1.65625 3.171875 -1.65625 C 3.296875 -1.65625 3.398438 -1.679688 3.484375 -1.734375 C 3.566406 -1.796875 3.609375 -1.882812 3.609375 -2 C 3.609375 -2.164062 3.515625 -2.300781 3.328125 -2.40625 C 3.148438 -2.507812 2.875 -2.628906 2.5 -2.765625 C 2.039062 -2.921875 1.660156 -3.078125 1.359375 -3.234375 C 1.066406 -3.390625 0.816406 -3.613281 0.609375 -3.90625 C 0.398438 -4.195312 0.296875 -4.570312 0.296875 -5.03125 C 0.296875 -5.488281 0.414062 -5.878906 0.65625 -6.203125 C 0.894531 -6.523438 1.21875 -6.769531 1.625 -6.9375 C 2.03125 -7.101562 2.488281 -7.1875 3 -7.1875 C 3.863281 -7.1875 4.550781 -6.984375 5.0625 -6.578125 C 5.570312 -6.179688 5.84375 -5.625 5.875 -4.90625 L 3.484375 -4.90625 C 3.472656 -5.101562 3.421875 -5.242188 3.328125 -5.328125 C 3.234375 -5.421875 3.125 -5.46875 3 -5.46875 C 2.90625 -5.46875 2.828125 -5.429688 2.765625 -5.359375 C 2.703125 -5.296875 2.671875 -5.210938 2.671875 -5.109375 C 2.671875 -4.941406 2.757812 -4.804688 2.9375 -4.703125 C 3.113281 -4.597656 3.394531 -4.472656 3.78125 -4.328125 C 4.226562 -4.160156 4.597656 -4 4.890625 -3.84375 C 5.179688 -3.695312 5.429688 -3.488281 5.640625 -3.21875 C 5.847656 -2.945312 5.953125 -2.601562 5.953125 -2.1875 C 5.953125 -1.75 5.847656 -1.359375 5.640625 -1.015625 C 5.429688 -0.679688 5.125 -0.414062 4.71875 -0.21875 C 4.3125 -0.03125 3.828125 0.0625 3.265625 0.0625 Z M 3.265625 0.0625 "/></g></g></g></svg>