<svg xmlns="http://www.w3.org/2000/svg" xmlns:xlink="http://www.w3.org/1999/xlink" width="500" zoomAndPan="magnify" viewBox="0 0 375 374.999991" height="500" preserveAspectRatio="xMidYMid meet" version="1.0"><defs><g/><clipPath id="id1"><path d="M 112.5 305.621094 L 262.5 305.621094 L 262.5 347.621094 L 112.5 347.621094 Z M 112.5 305.621094 " clip-rule="nonzero"/></clipPath></defs><rect x="-37.5" width="450" fill="#ffffff" y="-37.499999" height="449.999989" fill-opacity="1"/><rect x="-37.5" width="450" fill="#d9d9d9" y="-37.499999" height="449.999989" fill-opacity="1"/><rect x="-37.5" width="450" fill="#ffffff" y="-37.499999" height="449.999989" fill-opacity="1"/><rect x="-37.5" width="450" fill="#d9d9d9" y="-37.499999" height="449.999989" fill-opacity="1"/><g fill="#000000" fill-opacity="1"><g transform="translate(37.831232, 121.787394)"><g><path d="M 28.8125 -22.09375 C 28.8125 -20.082031 28.347656 -18.253906 27.421875 -16.609375 C 26.492188 -14.960938 25.097656 -13.644531 23.234375 -12.65625 C 21.367188 -11.675781 19.09375 -11.1875 16.40625 -11.1875 L 11.84375 -11.1875 L 11.84375 0 L 2.625 0 L 2.625 -33.140625 L 16.40625 -33.140625 C 19.0625 -33.140625 21.320312 -32.664062 23.1875 -31.71875 C 25.050781 -30.78125 26.453125 -29.476562 27.390625 -27.8125 C 28.335938 -26.15625 28.8125 -24.25 28.8125 -22.09375 Z M 15.515625 -18.515625 C 18.109375 -18.515625 19.40625 -19.707031 19.40625 -22.09375 C 19.40625 -24.5 18.109375 -25.703125 15.515625 -25.703125 L 11.84375 -25.703125 L 11.84375 -18.515625 Z M 15.515625 -18.515625 "/></g></g></g><g fill="#000000" fill-opacity="1"><g transform="translate(67.71822, 121.787394)"><g><path d="M 11.84375 -7.046875 L 22.140625 -7.046875 L 22.140625 0 L 2.625 0 L 2.625 -33.140625 L 11.84375 -33.140625 Z M 11.84375 -7.046875 "/></g></g></g><g fill="#000000" fill-opacity="1"><g transform="translate(90.791349, 121.787394)"><g><path d="M 23.59375 -5.40625 L 11.84375 -5.40625 L 10.0625 0 L 0.375 0 L 12.453125 -33.140625 L 23.078125 -33.140625 L 35.109375 0 L 25.375 0 Z M 21.296875 -12.453125 L 17.71875 -23.171875 L 14.1875 -12.453125 Z M 21.296875 -12.453125 "/></g></g></g><g fill="#000000" fill-opacity="1"><g transform="translate(126.270401, 121.787394)"><g><path d="M 1.5 -16.640625 C 1.5 -19.898438 2.179688 -22.804688 3.546875 -25.359375 C 4.910156 -27.910156 6.84375 -29.898438 9.34375 -31.328125 C 11.851562 -32.753906 14.738281 -33.46875 18 -33.46875 C 22.132812 -33.46875 25.613281 -32.363281 28.4375 -30.15625 C 31.257812 -27.945312 33.078125 -24.945312 33.890625 -21.15625 L 23.96875 -21.15625 C 23.375 -22.40625 22.550781 -23.359375 21.5 -24.015625 C 20.445312 -24.671875 19.234375 -25 17.859375 -25 C 15.722656 -25 14.019531 -24.238281 12.75 -22.71875 C 11.488281 -21.195312 10.859375 -19.171875 10.859375 -16.640625 C 10.859375 -14.066406 11.488281 -12.019531 12.75 -10.5 C 14.019531 -8.976562 15.722656 -8.21875 17.859375 -8.21875 C 19.234375 -8.21875 20.445312 -8.546875 21.5 -9.203125 C 22.550781 -9.867188 23.375 -10.828125 23.96875 -12.078125 L 33.890625 -12.078125 C 33.078125 -8.285156 31.257812 -5.285156 28.4375 -3.078125 C 25.613281 -0.867188 22.132812 0.234375 18 0.234375 C 14.738281 0.234375 11.851562 -0.476562 9.34375 -1.90625 C 6.84375 -3.332031 4.910156 -5.320312 3.546875 -7.875 C 2.179688 -10.425781 1.5 -13.347656 1.5 -16.640625 Z M 1.5 -16.640625 "/></g></g></g><g fill="#000000" fill-opacity="1"><g transform="translate(161.890432, 121.787394)"><g><path d="M 11.84375 -25.75 L 11.84375 -20.34375 L 22.421875 -20.34375 L 22.421875 -13.34375 L 11.84375 -13.34375 L 11.84375 -7.375 L 23.828125 -7.375 L 23.828125 0 L 2.625 0 L 2.625 -33.140625 L 23.828125 -33.140625 L 23.828125 -25.75 Z M 11.84375 -25.75 "/></g></g></g><g fill="#000000" fill-opacity="1"><g transform="translate(187.642109, 121.787394)"><g/></g></g><g fill="#000000" fill-opacity="1"><g transform="translate(196.617606, 121.787394)"><g><path d="M 32.765625 -33.140625 L 21.109375 -10.53125 L 21.109375 0 L 11.84375 0 L 11.84375 -10.53125 L 0.1875 -33.140625 L 10.71875 -33.140625 L 16.546875 -20.34375 L 22.375 -33.140625 Z M 32.765625 -33.140625 "/></g></g></g><g fill="#000000" fill-opacity="1"><g transform="translate(229.559079, 121.787394)"><g><path d="M 18.515625 0.328125 C 15.410156 0.328125 12.554688 -0.398438 9.953125 -1.859375 C 7.359375 -3.316406 5.300781 -5.335938 3.78125 -7.921875 C 2.257812 -10.503906 1.5 -13.425781 1.5 -16.6875 C 1.5 -19.945312 2.257812 -22.867188 3.78125 -25.453125 C 5.300781 -28.035156 7.359375 -30.046875 9.953125 -31.484375 C 12.554688 -32.929688 15.410156 -33.65625 18.515625 -33.65625 C 21.648438 -33.65625 24.507812 -32.929688 27.09375 -31.484375 C 29.675781 -30.046875 31.71875 -28.035156 33.21875 -25.453125 C 34.726562 -22.867188 35.484375 -19.945312 35.484375 -16.6875 C 35.484375 -13.425781 34.726562 -10.503906 33.21875 -7.921875 C 31.71875 -5.335938 29.664062 -3.316406 27.0625 -1.859375 C 24.46875 -0.398438 21.617188 0.328125 18.515625 0.328125 Z M 18.515625 -8.21875 C 20.867188 -8.21875 22.722656 -8.984375 24.078125 -10.515625 C 25.441406 -12.054688 26.125 -14.113281 26.125 -16.6875 C 26.125 -19.320312 25.441406 -21.394531 24.078125 -22.90625 C 22.722656 -24.425781 20.867188 -25.1875 18.515625 -25.1875 C 16.140625 -25.1875 14.273438 -24.425781 12.921875 -22.90625 C 11.578125 -21.394531 10.90625 -19.320312 10.90625 -16.6875 C 10.90625 -14.082031 11.578125 -12.019531 12.921875 -10.5 C 14.273438 -8.976562 16.140625 -8.21875 18.515625 -8.21875 Z M 18.515625 -8.21875 "/></g></g></g><g fill="#000000" fill-opacity="1"><g transform="translate(266.541872, 121.787394)"><g><path d="M 11.65625 -33.140625 L 11.65625 -13.90625 C 11.65625 -12.125 12.066406 -10.742188 12.890625 -9.765625 C 13.722656 -8.796875 14.988281 -8.3125 16.6875 -8.3125 C 18.375 -8.3125 19.648438 -8.804688 20.515625 -9.796875 C 21.378906 -10.785156 21.8125 -12.15625 21.8125 -13.90625 L 21.8125 -33.140625 L 31.015625 -33.140625 L 31.015625 -13.90625 C 31.015625 -10.875 30.375 -8.28125 29.09375 -6.125 C 27.8125 -3.976562 26.0625 -2.363281 23.84375 -1.28125 C 21.632812 -0.207031 19.1875 0.328125 16.5 0.328125 C 13.800781 0.328125 11.394531 -0.207031 9.28125 -1.28125 C 7.164062 -2.363281 5.503906 -3.972656 4.296875 -6.109375 C 3.085938 -8.242188 2.484375 -10.84375 2.484375 -13.90625 L 2.484375 -33.140625 Z M 11.65625 -33.140625 "/></g></g></g><g fill="#000000" fill-opacity="1"><g transform="translate(300.000252, 121.787394)"><g><path d="M 19.40625 0 L 12.828125 -12.21875 L 11.84375 -12.21875 L 11.84375 0 L 2.625 0 L 2.625 -33.140625 L 17.15625 -33.140625 C 19.820312 -33.140625 22.078125 -32.675781 23.921875 -31.75 C 25.773438 -30.820312 27.171875 -29.550781 28.109375 -27.9375 C 29.046875 -26.320312 29.515625 -24.515625 29.515625 -22.515625 C 29.515625 -20.253906 28.894531 -18.269531 27.65625 -16.5625 C 26.414062 -14.851562 24.609375 -13.640625 22.234375 -12.921875 L 29.703125 0 Z M 11.84375 -18.515625 L 16.40625 -18.515625 C 17.65625 -18.515625 18.59375 -18.8125 19.21875 -19.40625 C 19.84375 -20 20.15625 -20.863281 20.15625 -22 C 20.15625 -23.0625 19.832031 -23.894531 19.1875 -24.5 C 18.550781 -25.113281 17.625 -25.421875 16.40625 -25.421875 L 11.84375 -25.421875 Z M 11.84375 -18.515625 "/></g></g></g><g fill="#000000" fill-opacity="1"><g transform="translate(89.28826, 187.03739)"><g><path d="M 23.59375 -5.40625 L 11.84375 -5.40625 L 10.0625 0 L 0.375 0 L 12.453125 -33.140625 L 23.078125 -33.140625 L 35.109375 0 L 25.375 0 Z M 21.296875 -12.453125 L 17.71875 -23.171875 L 14.1875 -12.453125 Z M 21.296875 -12.453125 "/></g></g></g><g fill="#000000" fill-opacity="1"><g transform="translate(124.767312, 187.03739)"><g><path d="M 15.75 -33.140625 C 19.226562 -33.140625 22.273438 -32.441406 24.890625 -31.046875 C 27.503906 -29.648438 29.515625 -27.695312 30.921875 -25.1875 C 32.335938 -22.6875 33.046875 -19.820312 33.046875 -16.59375 C 33.046875 -13.394531 32.332031 -10.539062 30.90625 -8.03125 C 29.476562 -5.53125 27.457031 -3.566406 24.84375 -2.140625 C 22.226562 -0.710938 19.195312 0 15.75 0 L 2.625 0 L 2.625 -33.140625 Z M 15.046875 -8.125 C 17.734375 -8.125 19.84375 -8.859375 21.375 -10.328125 C 22.914062 -11.804688 23.6875 -13.894531 23.6875 -16.59375 C 23.6875 -19.320312 22.914062 -21.425781 21.375 -22.90625 C 19.84375 -24.394531 17.734375 -25.140625 15.046875 -25.140625 L 11.84375 -25.140625 L 11.84375 -8.125 Z M 15.046875 -8.125 "/></g></g></g><g fill="#000000" fill-opacity="1"><g transform="translate(159.306517, 187.03739)"><g><path d="M 34.875 -33.140625 L 23.453125 0 L 11.65625 0 L 0.1875 -33.140625 L 10.0625 -33.140625 L 17.578125 -9.21875 L 25.046875 -33.140625 Z M 34.875 -33.140625 "/></g></g></g><g fill="#000000" fill-opacity="1"><g transform="translate(194.40963, 187.03739)"><g><path d="M 11.84375 -25.75 L 11.84375 -20.34375 L 22.421875 -20.34375 L 22.421875 -13.34375 L 11.84375 -13.34375 L 11.84375 -7.375 L 23.828125 -7.375 L 23.828125 0 L 2.625 0 L 2.625 -33.140625 L 23.828125 -33.140625 L 23.828125 -25.75 Z M 11.84375 -25.75 "/></g></g></g><g fill="#000000" fill-opacity="1"><g transform="translate(220.161306, 187.03739)"><g><path d="M 19.40625 0 L 12.828125 -12.21875 L 11.84375 -12.21875 L 11.84375 0 L 2.625 0 L 2.625 -33.140625 L 17.15625 -33.140625 C 19.820312 -33.140625 22.078125 -32.675781 23.921875 -31.75 C 25.773438 -30.820312 27.171875 -29.550781 28.109375 -27.9375 C 29.046875 -26.320312 29.515625 -24.515625 29.515625 -22.515625 C 29.515625 -20.253906 28.894531 -18.269531 27.65625 -16.5625 C 26.414062 -14.851562 24.609375 -13.640625 22.234375 -12.921875 L 29.703125 0 Z M 11.84375 -18.515625 L 16.40625 -18.515625 C 17.65625 -18.515625 18.59375 -18.8125 19.21875 -19.40625 C 19.84375 -20 20.15625 -20.863281 20.15625 -22 C 20.15625 -23.0625 19.832031 -23.894531 19.1875 -24.5 C 18.550781 -25.113281 17.625 -25.421875 16.40625 -25.421875 L 11.84375 -25.421875 Z M 11.84375 -18.515625 "/></g></g></g><g fill="#000000" fill-opacity="1"><g transform="translate(251.223099, 187.03739)"><g><path d="M 27.59375 -33.140625 L 27.59375 -25.796875 L 18.75 -25.796875 L 18.75 0 L 9.546875 0 L 9.546875 -25.796875 L 0.796875 -25.796875 L 0.796875 -33.140625 Z M 27.59375 -33.140625 "/></g></g></g><g fill="#000000" fill-opacity="1"><g transform="translate(125.710133, 252.287386)"><g><path d="M 32.28125 -33.140625 L 32.28125 0 L 23.078125 0 L 23.078125 -13.296875 L 11.84375 -13.296875 L 11.84375 0 L 2.625 0 L 2.625 -33.140625 L 11.84375 -33.140625 L 11.84375 -20.6875 L 23.078125 -20.6875 L 23.078125 -33.140625 Z M 32.28125 -33.140625 "/></g></g></g><g fill="#000000" fill-opacity="1"><g transform="translate(160.625277, 252.287386)"><g><path d="M 11.84375 -25.75 L 11.84375 -20.34375 L 22.421875 -20.34375 L 22.421875 -13.34375 L 11.84375 -13.34375 L 11.84375 -7.375 L 23.828125 -7.375 L 23.828125 0 L 2.625 0 L 2.625 -33.140625 L 23.828125 -33.140625 L 23.828125 -25.75 Z M 11.84375 -25.75 "/></g></g></g><g fill="#000000" fill-opacity="1"><g transform="translate(186.376953, 252.287386)"><g><path d="M 19.40625 0 L 12.828125 -12.21875 L 11.84375 -12.21875 L 11.84375 0 L 2.625 0 L 2.625 -33.140625 L 17.15625 -33.140625 C 19.820312 -33.140625 22.078125 -32.675781 23.921875 -31.75 C 25.773438 -30.820312 27.171875 -29.550781 28.109375 -27.9375 C 29.046875 -26.320312 29.515625 -24.515625 29.515625 -22.515625 C 29.515625 -20.253906 28.894531 -18.269531 27.65625 -16.5625 C 26.414062 -14.851562 24.609375 -13.640625 22.234375 -12.921875 L 29.703125 0 Z M 11.84375 -18.515625 L 16.40625 -18.515625 C 17.65625 -18.515625 18.59375 -18.8125 19.21875 -19.40625 C 19.84375 -20 20.15625 -20.863281 20.15625 -22 C 20.15625 -23.0625 19.832031 -23.894531 19.1875 -24.5 C 18.550781 -25.113281 17.625 -25.421875 16.40625 -25.421875 L 11.84375 -25.421875 Z M 11.84375 -18.515625 "/></g></g></g><g fill="#000000" fill-opacity="1"><g transform="translate(217.438746, 252.287386)"><g><path d="M 11.84375 -25.75 L 11.84375 -20.34375 L 22.421875 -20.34375 L 22.421875 -13.34375 L 11.84375 -13.34375 L 11.84375 -7.375 L 23.828125 -7.375 L 23.828125 0 L 2.625 0 L 2.625 -33.140625 L 23.828125 -33.140625 L 23.828125 -25.75 Z M 11.84375 -25.75 "/></g></g></g><g clip-path="url(#id1)"><path fill="#000000" d="M 241.46875 347.5625 L 133.53125 347.5625 C 121.90625 347.5625 112.5 338.195312 112.5 326.621094 C 112.5 315.046875 121.90625 305.683594 133.53125 305.683594 L 241.46875 305.683594 C 253.09375 305.683594 262.5 315.046875 262.5 326.621094 C 262.5 338.195312 253.0625 347.5625 241.46875 347.5625 Z M 241.46875 347.5625 " fill-opacity="1" fill-rule="nonzero"/></g><g fill="#ffffff" fill-opacity="1"><g transform="translate(134.249996, 333.091121)"><g><path d="M 0.59375 -6.640625 C 0.59375 -7.941406 0.863281 -9.097656 1.40625 -10.109375 C 1.957031 -11.128906 2.734375 -11.921875 3.734375 -12.484375 C 4.734375 -13.054688 5.882812 -13.34375 7.1875 -13.34375 C 8.832031 -13.34375 10.21875 -12.898438 11.34375 -12.015625 C 12.46875 -11.140625 13.191406 -9.945312 13.515625 -8.4375 L 9.5625 -8.4375 C 9.320312 -8.9375 8.992188 -9.316406 8.578125 -9.578125 C 8.160156 -9.835938 7.675781 -9.96875 7.125 -9.96875 C 6.269531 -9.96875 5.585938 -9.664062 5.078125 -9.0625 C 4.578125 -8.457031 4.328125 -7.648438 4.328125 -6.640625 C 4.328125 -5.609375 4.578125 -4.789062 5.078125 -4.1875 C 5.585938 -3.582031 6.269531 -3.28125 7.125 -3.28125 C 7.675781 -3.28125 8.160156 -3.410156 8.578125 -3.671875 C 8.992188 -3.929688 9.320312 -4.3125 9.5625 -4.8125 L 13.515625 -4.8125 C 13.191406 -3.300781 12.46875 -2.101562 11.34375 -1.21875 C 10.21875 -0.34375 8.832031 0.09375 7.1875 0.09375 C 5.882812 0.09375 4.734375 -0.1875 3.734375 -0.75 C 2.734375 -1.320312 1.957031 -2.117188 1.40625 -3.140625 C 0.863281 -4.160156 0.59375 -5.328125 0.59375 -6.640625 Z M 0.59375 -6.640625 "/></g></g></g><g fill="#ffffff" fill-opacity="1"><g transform="translate(148.46255, 333.091121)"><g><path d="M 5.9375 0.125 C 4.894531 0.125 3.957031 -0.09375 3.125 -0.53125 C 2.289062 -0.96875 1.632812 -1.59375 1.15625 -2.40625 C 0.6875 -3.21875 0.453125 -4.171875 0.453125 -5.265625 C 0.453125 -6.359375 0.691406 -7.3125 1.171875 -8.125 C 1.648438 -8.9375 2.304688 -9.5625 3.140625 -10 C 3.972656 -10.4375 4.914062 -10.65625 5.96875 -10.65625 C 7.007812 -10.65625 7.945312 -10.4375 8.78125 -10 C 9.613281 -9.5625 10.269531 -8.9375 10.75 -8.125 C 11.226562 -7.3125 11.46875 -6.359375 11.46875 -5.265625 C 11.46875 -4.179688 11.226562 -3.226562 10.75 -2.40625 C 10.269531 -1.59375 9.609375 -0.96875 8.765625 -0.53125 C 7.929688 -0.09375 6.988281 0.125 5.9375 0.125 Z M 5.9375 -3.0625 C 6.457031 -3.0625 6.890625 -3.25 7.234375 -3.625 C 7.578125 -4.007812 7.75 -4.554688 7.75 -5.265625 C 7.75 -5.984375 7.578125 -6.53125 7.234375 -6.90625 C 6.890625 -7.28125 6.46875 -7.46875 5.96875 -7.46875 C 5.46875 -7.46875 5.046875 -7.28125 4.703125 -6.90625 C 4.367188 -6.53125 4.203125 -5.984375 4.203125 -5.265625 C 4.203125 -4.546875 4.363281 -4 4.6875 -3.625 C 5.007812 -3.25 5.425781 -3.0625 5.9375 -3.0625 Z M 5.9375 -3.0625 "/></g></g></g><g fill="#ffffff" fill-opacity="1"><g transform="translate(160.38759, 333.091121)"><g><path d="M 7.9375 -10.609375 C 9.144531 -10.609375 10.101562 -10.203125 10.8125 -9.390625 C 11.53125 -8.585938 11.890625 -7.5 11.890625 -6.125 L 11.890625 0 L 8.21875 0 L 8.21875 -5.640625 C 8.21875 -6.242188 8.0625 -6.71875 7.75 -7.0625 C 7.4375 -7.40625 7.015625 -7.578125 6.484375 -7.578125 C 5.929688 -7.578125 5.5 -7.40625 5.1875 -7.0625 C 4.875 -6.71875 4.71875 -6.242188 4.71875 -5.640625 L 4.71875 0 L 1.046875 0 L 1.046875 -10.515625 L 4.71875 -10.515625 L 4.71875 -9.015625 C 5.050781 -9.492188 5.488281 -9.878906 6.03125 -10.171875 C 6.582031 -10.460938 7.21875 -10.609375 7.9375 -10.609375 Z M 7.9375 -10.609375 "/></g></g></g><g fill="#ffffff" fill-opacity="1"><g transform="translate(173.250142, 333.091121)"><g><path d="M 7.25 -3.125 L 7.25 0 L 5.65625 0 C 2.96875 0 1.625 -1.332031 1.625 -4 L 1.625 -7.46875 L 0.34375 -7.46875 L 0.34375 -10.515625 L 1.625 -10.515625 L 1.625 -13.0625 L 5.328125 -13.0625 L 5.328125 -10.515625 L 7.234375 -10.515625 L 7.234375 -7.46875 L 5.328125 -7.46875 L 5.328125 -3.9375 C 5.328125 -3.644531 5.390625 -3.4375 5.515625 -3.3125 C 5.648438 -3.1875 5.875 -3.125 6.1875 -3.125 Z M 7.25 -3.125 "/></g></g></g><g fill="#ffffff" fill-opacity="1"><g transform="translate(181.143921, 333.091121)"><g><path d="M 0.453125 -5.265625 C 0.453125 -6.359375 0.644531 -7.3125 1.03125 -8.125 C 1.425781 -8.9375 1.960938 -9.5625 2.640625 -10 C 3.328125 -10.4375 4.09375 -10.65625 4.9375 -10.65625 C 5.65625 -10.65625 6.273438 -10.507812 6.796875 -10.21875 C 7.328125 -9.925781 7.738281 -9.539062 8.03125 -9.0625 L 8.03125 -10.515625 L 11.703125 -10.515625 L 11.703125 0 L 8.03125 0 L 8.03125 -1.46875 C 7.738281 -0.976562 7.328125 -0.585938 6.796875 -0.296875 C 6.265625 -0.015625 5.644531 0.125 4.9375 0.125 C 4.09375 0.125 3.328125 -0.09375 2.640625 -0.53125 C 1.960938 -0.96875 1.425781 -1.59375 1.03125 -2.40625 C 0.644531 -3.226562 0.453125 -4.179688 0.453125 -5.265625 Z M 8.03125 -5.265625 C 8.03125 -5.941406 7.84375 -6.472656 7.46875 -6.859375 C 7.101562 -7.242188 6.648438 -7.4375 6.109375 -7.4375 C 5.554688 -7.4375 5.097656 -7.242188 4.734375 -6.859375 C 4.378906 -6.484375 4.203125 -5.953125 4.203125 -5.265625 C 4.203125 -4.585938 4.378906 -4.050781 4.734375 -3.65625 C 5.097656 -3.269531 5.554688 -3.078125 6.109375 -3.078125 C 6.648438 -3.078125 7.101562 -3.269531 7.46875 -3.65625 C 7.84375 -4.039062 8.03125 -4.578125 8.03125 -5.265625 Z M 8.03125 -5.265625 "/></g></g></g><g fill="#ffffff" fill-opacity="1"><g transform="translate(193.893966, 333.091121)"><g><path d="M 0.453125 -5.265625 C 0.453125 -6.359375 0.675781 -7.3125 1.125 -8.125 C 1.570312 -8.9375 2.195312 -9.5625 3 -10 C 3.8125 -10.4375 4.738281 -10.65625 5.78125 -10.65625 C 7.113281 -10.65625 8.234375 -10.285156 9.140625 -9.546875 C 10.054688 -8.816406 10.644531 -7.796875 10.90625 -6.484375 L 7.015625 -6.484375 C 6.785156 -7.171875 6.347656 -7.515625 5.703125 -7.515625 C 5.234375 -7.515625 4.863281 -7.320312 4.59375 -6.9375 C 4.332031 -6.5625 4.203125 -6.003906 4.203125 -5.265625 C 4.203125 -4.523438 4.332031 -3.960938 4.59375 -3.578125 C 4.863281 -3.191406 5.234375 -3 5.703125 -3 C 6.359375 -3 6.796875 -3.34375 7.015625 -4.03125 L 10.90625 -4.03125 C 10.644531 -2.726562 10.054688 -1.707031 9.140625 -0.96875 C 8.234375 -0.238281 7.113281 0.125 5.78125 0.125 C 4.738281 0.125 3.8125 -0.09375 3 -0.53125 C 2.195312 -0.96875 1.570312 -1.59375 1.125 -2.40625 C 0.675781 -3.21875 0.453125 -4.171875 0.453125 -5.265625 Z M 0.453125 -5.265625 "/></g></g></g><g fill="#ffffff" fill-opacity="1"><g transform="translate(205.275263, 333.091121)"><g><path d="M 7.25 -3.125 L 7.25 0 L 5.65625 0 C 2.96875 0 1.625 -1.332031 1.625 -4 L 1.625 -7.46875 L 0.34375 -7.46875 L 0.34375 -10.515625 L 1.625 -10.515625 L 1.625 -13.0625 L 5.328125 -13.0625 L 5.328125 -10.515625 L 7.234375 -10.515625 L 7.234375 -7.46875 L 5.328125 -7.46875 L 5.328125 -3.9375 C 5.328125 -3.644531 5.390625 -3.4375 5.515625 -3.3125 C 5.648438 -3.1875 5.875 -3.125 6.1875 -3.125 Z M 7.25 -3.125 "/></g></g></g><g fill="#ffffff" fill-opacity="1"><g transform="translate(213.169042, 333.091121)"><g/></g></g><g fill="#ffffff" fill-opacity="1"><g transform="translate(216.75031, 333.091121)"><g><path d="M 4.65625 -13.21875 L 4.65625 -5.546875 C 4.65625 -4.835938 4.816406 -4.285156 5.140625 -3.890625 C 5.472656 -3.503906 5.976562 -3.3125 6.65625 -3.3125 C 7.332031 -3.3125 7.84375 -3.507812 8.1875 -3.90625 C 8.53125 -4.300781 8.703125 -4.847656 8.703125 -5.546875 L 8.703125 -13.21875 L 12.375 -13.21875 L 12.375 -5.546875 C 12.375 -4.335938 12.117188 -3.300781 11.609375 -2.4375 C 11.097656 -1.582031 10.398438 -0.941406 9.515625 -0.515625 C 8.628906 -0.0859375 7.648438 0.125 6.578125 0.125 C 5.503906 0.125 4.546875 -0.0859375 3.703125 -0.515625 C 2.859375 -0.941406 2.195312 -1.582031 1.71875 -2.4375 C 1.238281 -3.289062 1 -4.328125 1 -5.546875 L 1 -13.21875 Z M 4.65625 -13.21875 "/></g></g></g><g fill="#ffffff" fill-opacity="1"><g transform="translate(230.100357, 333.091121)"><g><path d="M 5.53125 0.125 C 4.582031 0.125 3.734375 -0.03125 2.984375 -0.34375 C 2.242188 -0.664062 1.65625 -1.101562 1.21875 -1.65625 C 0.789062 -2.21875 0.550781 -2.847656 0.5 -3.546875 L 4.0625 -3.546875 C 4.113281 -3.203125 4.269531 -2.9375 4.53125 -2.75 C 4.800781 -2.5625 5.128906 -2.46875 5.515625 -2.46875 C 5.816406 -2.46875 6.050781 -2.53125 6.21875 -2.65625 C 6.394531 -2.78125 6.484375 -2.945312 6.484375 -3.15625 C 6.484375 -3.414062 6.335938 -3.609375 6.046875 -3.734375 C 5.765625 -3.859375 5.289062 -3.992188 4.625 -4.140625 C 3.875 -4.296875 3.25 -4.46875 2.75 -4.65625 C 2.25 -4.84375 1.816406 -5.144531 1.453125 -5.5625 C 1.085938 -5.988281 0.90625 -6.566406 0.90625 -7.296875 C 0.90625 -7.921875 1.070312 -8.484375 1.40625 -8.984375 C 1.738281 -9.492188 2.234375 -9.898438 2.890625 -10.203125 C 3.546875 -10.503906 4.335938 -10.65625 5.265625 -10.65625 C 6.640625 -10.65625 7.71875 -10.316406 8.5 -9.640625 C 9.289062 -8.960938 9.75 -8.070312 9.875 -6.96875 L 6.5625 -6.96875 C 6.5 -7.3125 6.351562 -7.570312 6.125 -7.75 C 5.894531 -7.9375 5.582031 -8.03125 5.1875 -8.03125 C 4.894531 -8.03125 4.671875 -7.972656 4.515625 -7.859375 C 4.359375 -7.742188 4.28125 -7.585938 4.28125 -7.390625 C 4.28125 -7.140625 4.421875 -6.945312 4.703125 -6.8125 C 4.992188 -6.6875 5.457031 -6.550781 6.09375 -6.40625 C 6.851562 -6.25 7.484375 -6.066406 7.984375 -5.859375 C 8.492188 -5.660156 8.941406 -5.335938 9.328125 -4.890625 C 9.710938 -4.453125 9.90625 -3.851562 9.90625 -3.09375 C 9.90625 -2.476562 9.722656 -1.925781 9.359375 -1.4375 C 9.003906 -0.957031 8.5 -0.578125 7.84375 -0.296875 C 7.1875 -0.015625 6.414062 0.125 5.53125 0.125 Z M 5.53125 0.125 "/></g></g></g></svg>