<svg width="34" height="35" viewBox="0 0 34 35" fill="none" xmlns="http://www.w3.org/2000/svg">
<path d="M20.0267 0.00154731C20.579 0.000665068 21.0274 0.447665 21.0283 0.999949L21.0333 4.10912L0.0433765 4.14265L0.0384097 1.03348C0.0375275 0.481195 0.484527 0.0327649 1.03681 0.0318827L20.0267 0.00154731Z" fill="white"/>
<path d="M20.0554 0.00149977C20.6076 0.00061753 21.0561 0.447617 21.057 0.999901L21.0681 8.00521L13.0128 8.01808L13.0016 1.01277C13.0007 0.460485 13.4477 0.0120551 14 0.0111728L20.0554 0.00149977Z" fill="white"/>
<path d="M7.05536 0.00149977C7.60764 0.00061753 8.05607 0.447617 8.05696 0.999901L8.06815 8.00521L0.0128123 8.01808L0.00162172 1.01277C0.000739478 0.460485 0.447739 0.0120551 1.00002 0.0111728L7.05536 0.00149977Z" fill="white"/>
<path d="M0 13.0117H8V17.0117H0V13.0117Z" fill="white"/>
<rect x="25" y="17.0117" width="8" height="13" fill="white"/>
<path d="M13.0237 20.0963L13.0285 12.0118L32.019 12.0787C32.5713 12.0806 33.0174 12.5299 33.0155 13.0822L32.9908 20.0822L13.0237 20.0963Z" fill="white"/>
<path d="M0.0380941 13.24L7.96837 13.2405C7.96923 27.0124 8.29713 27.0125 31.2645 27.0139L31.2649 34.0139C6.4828 35.0123 -0.456392 31.5117 0.0380941 13.24Z" fill="white"/>
<path d="M19.0385 34.0117C14.6202 34.0117 11.0385 30.43 11.0385 26.0117V26.0117L33.0385 26.0117V32.0117C33.0385 33.1163 32.143 34.0117 31.0385 34.0117L19.0385 34.0117Z" fill="white"/>
<path d="M16.6485 33.6572C13.1016 33.6625 10.0385 30.9365 10.0385 27.3895V26.0117L25.0385 26.0117V34.0117C21.73 33.8121 19.2425 33.6533 16.6485 33.6572Z" fill="white"/>
<path d="M10.0385 32.0117L10.0385 26.0117L33.0385 26.0117V30.0117C33.0385 31.1163 32.143 32.0117 31.0385 32.0117L10.0385 32.0117Z" fill="white"/>
</svg>
